Coordinates
version=1
nRows=54
nColumns=12
inDegrees=yes

Units are S.I. units (second, meters, Newtons, ...)
Angles are in degrees

endheader
time	SC_y	SC_z	SC_x	AC_y	AC_z	AC_x	GH_y	GH_z	GH_yy	EL_x	PS_y
       0.0               -31.7          24.25          43.81          59.39        0.06668          -4.75          153.7           50.6         -103.8          19.78          157.7
    0.0361               -31.7          24.25          43.81          59.39        0.06795          -4.75          153.6           50.6         -103.8          19.78          157.7
   0.07219               -31.7          24.25           43.8          59.39         0.0693         -4.749          153.6          50.61         -103.8          19.79          157.7
    0.1083               -31.7          24.24           43.8          59.39        0.07074         -4.749          153.5          50.61         -103.8           19.8          157.7
    0.1444              -31.71          24.24          43.79          59.39        0.07227         -4.748          153.5          50.61         -103.8          19.81          157.7
    0.1805              -31.71          24.24          43.78          59.39         0.0739         -4.748          153.4          50.62         -103.8          19.82          157.7
    0.2166              -31.71          24.23          43.78          59.39        0.07564         -4.747          153.4          50.62         -103.8          19.83          157.7
    0.2527              -31.72          24.23          43.77          59.39         0.0775         -4.746          153.3          50.63         -103.8          19.84          157.7
    0.2888              -31.72          24.23          43.76          59.39        0.07949         -4.746          153.2          50.63         -103.8          19.85          157.7
    0.3249              -31.73          24.22          43.75          59.39        0.08163         -4.745          153.1          50.64         -103.7          19.87          157.6
     0.361              -31.73          24.22          43.74          59.39        0.08393         -4.744          153.0          50.64         -103.7          19.88          157.6
    0.3971              -31.74          24.21          43.73          59.39         0.0864         -4.744          153.0          50.65         -103.7           19.9          157.6
    0.4332              -31.74           24.2          43.72          59.39        0.08906         -4.743          152.9          50.66         -103.7          19.91          157.6
    0.4692              -31.75           24.2          43.71          59.39        0.09194         -4.742          152.7          50.66         -103.7          19.93          157.6
    0.5053              -31.76          24.19           43.7          59.39        0.09505         -4.741          152.6          50.67         -103.7          19.95          157.6
    0.5414              -31.76          24.18          43.69          59.39        0.09843          -4.74          152.5          50.68         -103.7          19.97          157.6
    0.5775              -31.77          24.18          43.67          59.39         0.1021         -4.738          152.4          50.69         -103.6          19.99          157.5
    0.6136              -31.78          24.17          43.66          59.39         0.1061         -4.737          152.2           50.7         -103.6          20.02          157.5
    0.6497              -31.79          24.16          43.64          59.39         0.1105         -4.736          152.1          50.71         -103.6          20.04          157.5
    0.6858               -31.8          24.15          43.62          59.39         0.1152         -4.734          151.9          50.72         -103.6          20.07          157.5
    0.7219              -31.81          24.14           43.6           59.4         0.1205         -4.733          151.7          50.73         -103.5           20.1          157.5
     0.758              -31.82          24.12          43.58           59.4         0.1263         -4.731          151.5          50.75         -103.5          20.14          157.4
    0.7941              -31.83          24.11          43.55           59.4         0.1326         -4.729          151.2          50.76         -103.5          20.18          157.4
    0.8302              -31.85           24.1          43.52           59.4         0.1397         -4.726          151.0          50.78         -103.5          20.22          157.4
    0.8663              -31.87          24.08          43.49           59.4         0.1476         -4.724          150.7           50.8         -103.4          20.27          157.3
    0.9024              -31.88          24.06          43.46           59.4         0.1563         -4.721          150.3          50.82         -103.4          20.32          157.3
    0.9385              -31.91          24.04          43.42           59.4         0.1662         -4.718          150.0          50.84         -103.3          20.38          157.3
    0.9746              -31.93          24.01          43.37          59.41         0.1772         -4.714          149.5          50.87         -103.3          20.45          157.2
     1.011              -31.96          23.99          43.33          59.41         0.1897          -4.71          149.1           50.9         -103.2          20.52          157.1
     1.047              -31.99          23.96          43.27          59.41         0.2039         -4.705          148.5          50.93         -103.1          20.61          157.1
     1.083              -32.02          23.92           43.2          59.41         0.2201           -4.7          147.9          50.97         -103.0          20.71          157.0
     1.119              -32.06          23.88          43.13          59.42         0.2386         -4.694          147.2          51.02         -102.9          20.82          156.9
     1.155               -32.1          23.84          43.05          59.42         0.2601         -4.687          146.4          51.07         -102.8          20.95          156.8
     1.191              -32.16          23.78          42.95          59.42          0.285         -4.679          145.5          51.13         -102.7           21.1          156.7
     1.227              -32.22          23.72          42.83          59.43         0.3141          -4.67          144.4           51.2         -102.6          21.28          156.6
     1.263              -32.29          23.65           42.7          59.44         0.3485         -4.658          143.1          51.28         -102.4          21.49          156.4
     1.299              -32.38          23.56          42.54          59.44         0.3893         -4.645          141.6          51.38         -102.2          21.74          156.2
     1.336              -32.48          23.45          42.34          59.45         0.4383         -4.629          139.7           51.5         -101.9          22.04          156.0
     1.372               -32.6          23.33          42.11          59.46         0.4975          -4.61          137.5          51.65         -101.6           22.4          155.7
     1.408              -32.76          23.17          41.82          59.48         0.5698         -4.586          134.8          51.82         -101.3          22.84          155.4
     1.444              -32.95          22.98          41.47          59.49         0.6591         -4.557          131.5          52.04         -100.8          23.38          155.0
      1.48              -33.18          22.74          41.03          59.51         0.7704         -4.521          127.3          52.31         -100.3          24.06          154.5
     1.516              -33.48          22.44          40.47          59.54         0.9107         -4.476          122.0          52.65         -99.54          24.91          153.8
     1.552              -33.85          22.05          39.77          59.57          1.089         -4.418          115.3          53.08         -98.64          25.99          153.0
     1.588              -34.33          21.56          38.86          59.61          1.317         -4.344          106.8          53.64         -97.48          27.38          152.0
     1.624              -34.95          20.93          37.71          59.66           1.61         -4.248          95.77          54.35          -96.0          29.16          150.6
      1.66              -35.74          20.12          36.23          59.73          1.984         -4.127          81.73          55.25          -94.1          31.43          148.9
     1.697              -36.73          19.11          34.36          59.81          2.454         -3.974          64.07           56.4         -91.71          34.29          146.8
     1.733              -37.94          17.88           32.1          59.91          3.028         -3.788          42.56          57.79         -88.81          37.78          144.2
     1.769              -39.34          16.45          29.47          60.03          3.692         -3.572          17.62           59.4         -85.44          41.81          141.1
     1.805              -40.86           14.9          26.62          60.16          4.411         -3.338         -9.377          61.14         -81.79          46.19          137.8
     1.841              -42.38          13.35          23.77          60.29          5.131         -3.104         -36.38          62.89         -78.14          50.56          134.5
     1.877              -43.78          11.92          21.15           60.4          5.795         -2.888         -61.31           64.5         -74.77           54.6          131.5
     1.913              -44.99          10.69          18.88          60.51          6.368         -2.702         -82.83          65.89         -71.87          58.08          128.9
